{
  "asset": {
    "version": "2.0",
    "generator": "GLTFExporter"
  },
  "scenes": [
    {
      "name": "Scene",
      "nodes": [
        0,
        1,
        2
      ]
    }
  ],
  "scene": 0,
  "nodes": [
    {
      "matrix": [
        1,
        0,
        0,
        0,
        0,
        2.220446049250313e-16,
        -1,
        0,
        0,
        1,
        2.220446049250313e-16,
        0,
        0,
        20.807,
        0,
        1
      ],
      "name": "wall-line",
      "mesh": 0
    },
    {
      "matrix": [
        1,
        0,
        0,
        0,
        0,
        2.220446049250313e-16,
        -1,
        0,
        0,
        1,
        2.220446049250313e-16,
        0,
        0,
        20.807,
        0,
        1
      ],
      "name": "wall-backgound",
      "mesh": 1
    },
    {
      "matrix": [
        1,
        0,
        0,
        0,
        0,
        2.220446049250313e-16,
        -1,
        0,
        0,
        1,
        2.220446049250313e-16,
        0,
        0,
        20.6487246021659,
        0,
        1
      ],
      "name": "top",
      "extras": {
        "name": "top"
      },
      "mesh": 2
    }
  ],
  "bufferViews": [
    {
      "buffer": 0,
      "byteOffset": 0,
      "byteLength": 256,
      "target": 34962,
      "byteStride": 16
    },
    {
      "buffer": 0,
      "byteOffset": 256,
      "byteLength": 192,
      "target": 34962,
      "byteStride": 12
    },
    {
      "buffer": 0,
      "byteOffset": 448,
      "byteLength": 192,
      "target": 34962,
      "byteStride": 12
    },
    {
      "buffer": 0,
      "byteOffset": 640,
      "byteLength": 128,
      "target": 34962,
      "byteStride": 8
    },
    {
      "buffer": 0,
      "byteOffset": 768,
      "byteLength": 128,
      "target": 34962,
      "byteStride": 8
    },
    {
      "buffer": 0,
      "byteOffset": 896,
      "byteLength": 64,
      "target": 34962,
      "byteStride": 4
    },
    {
      "buffer": 0,
      "byteOffset": 960,
      "byteLength": 48,
      "target": 34963
    },
    {
      "buffer": 0,
      "byteOffset": 1008,
      "byteLength": 64,
      "target": 34962,
      "byteStride": 16
    },
    {
      "buffer": 0,
      "byteOffset": 1072,
      "byteLength": 48,
      "target": 34962,
      "byteStride": 12
    },
    {
      "buffer": 0,
      "byteOffset": 1120,
      "byteLength": 48,
      "target": 34962,
      "byteStride": 12
    },
    {
      "buffer": 0,
      "byteOffset": 1168,
      "byteLength": 32,
      "target": 34962,
      "byteStride": 8
    },
    {
      "buffer": 0,
      "byteOffset": 1200,
      "byteLength": 32,
      "target": 34962,
      "byteStride": 8
    },
    {
      "buffer": 0,
      "byteOffset": 1232,
      "byteLength": 16,
      "target": 34962,
      "byteStride": 4
    },
    {
      "buffer": 0,
      "byteOffset": 1248,
      "byteLength": 12,
      "target": 34963
    }
  ],
  "buffers": [
    {
      "byteLength": 1260,
      "uri": "data:application/octet-stream;base64,"
    }
  ],
  "accessors": [
    {
      "bufferView": 0,
      "componentType": 5126,
      "count": 16,
      "max": [
        1,
        1,
        1,
        1
      ],
      "min": [
        1,
        1,
        1,
        0.30000001192092896
      ],
      "type": "VEC4"
    },
    {
      "bufferView": 1,
      "componentType": 5126,
      "count": 16,
      "max": [
        0.999966025352478,
        0.9999650120735168,
        0
      ],
      "min": [
        -0.999966025352478,
        -0.9999650120735168,
        0
      ],
      "type": "VEC3"
    },
    {
      "bufferView": 2,
      "componentType": 5126,
      "count": 16,
      "max": [
        15.517242431640625,
        33.19465637207031,
        20.755783081054688
      ],
      "min": [
        -15.517242431640625,
        -33.19465637207031,
        -20.755783081054688
      ],
      "type": "VEC3"
    },
    {
      "bufferView": 3,
      "componentType": 5126,
      "count": 16,
      "max": [
        6.704750061035156,
        1
      ],
      "min": [
        -1.5218780040740967,
        0.44485801458358765
      ],
      "type": "VEC2"
    },
    {
      "bufferView": 4,
      "componentType": 5126,
      "count": 16,
      "max": [
        0,
        1
      ],
      "min": [
        0,
        1
      ],
      "type": "VEC2"
    },
    {
      "bufferView": 5,
      "componentType": 5126,
      "count": 16,
      "max": [
        1
      ],
      "min": [
        0.30000001192092896
      ],
      "type": "SCALAR"
    },
    {
      "bufferView": 6,
      "componentType": 5123,
      "count": 24,
      "max": [
        15
      ],
      "min": [
        0
      ],
      "type": "SCALAR"
    },
    {
      "bufferView": 7,
      "componentType": 5126,
      "count": 4,
      "max": [
        1,
        1,
        1,
        0.30000001192092896
      ],
      "min": [
        1,
        1,
        1,
        0.30000001192092896
      ],
      "type": "VEC4"
    },
    {
      "bufferView": 8,
      "componentType": 5126,
      "count": 4,
      "max": [
        0,
        0,
        1
      ],
      "min": [
        0,
        0,
        1
      ],
      "type": "VEC3"
    },
    {
      "bufferView": 9,
      "componentType": 5126,
      "count": 4,
      "max": [
        15.517242431640625,
        33.19465637207031,
        20.755783081054688
      ],
      "min": [
        -15.517242431640625,
        -33.19465637207031,
        20.755783081054688
      ],
      "type": "VEC3"
    },
    {
      "bufferView": 10,
      "componentType": 5126,
      "count": 4,
      "max": [
        2.5540390014648438,
        -0.924697995185852
      ],
      "min": [
        0.46906501054763794,
        -0.9460110068321228
      ],
      "type": "VEC2"
    },
    {
      "bufferView": 11,
      "componentType": 5126,
      "count": 4,
      "max": [
        0,
        1
      ],
      "min": [
        0,
        1
      ],
      "type": "VEC2"
    },
    {
      "bufferView": 12,
      "componentType": 5126,
      "count": 4,
      "max": [
        0.30000001192092896
      ],
      "min": [
        0.30000001192092896
      ],
      "type": "SCALAR"
    },
    {
      "bufferView": 13,
      "componentType": 5123,
      "count": 6,
      "max": [
        3
      ],
      "min": [
        0
      ],
      "type": "SCALAR"
    }
  ],
  "materials": [
    {
      "pbrMetallicRoughness": {
        "metallicFactor": 0,
        "roughnessFactor": 1,
        "baseColorTexture": {
          "index": 0,
          "extensions": {
            "KHR_texture_transform": {
              "offset": [
                0,
                0.886582
              ]
            }
          }
        }
      },
      "alphaMode": "BLEND",
      "extras": {
        "gltfExtensions": {
          "baseColorTexture": {
            "textureExtensions": [
              {
                "index": 15,
                "texCoord": 0,
                "extensions": {
                  "scrollAnim": {
                    "speed": [
                      0,
                      -0.1
                    ]
                  }
                }
              }
            ]
          }
        }
      }
    },
    {
      "pbrMetallicRoughness": {
        "baseColorFactor": [
          0.09803921568627451,
          0.7294117647058823,
          0.09411764705882353,
          0.7
        ],
        "metallicFactor": 0,
        "roughnessFactor": 1,
        "baseColorTexture": {
          "index": 1
        }
      },
      "alphaMode": "BLEND",
      "extras": {
        "gltfExtensions": {
          "blend": [
            {
              "subMaterial": 17,
              "maskTexture": {
                "index": 17,
                "texCoord": 0
              }
            }
          ]
        }
      }
    },
    {
      "pbrMetallicRoughness": {
        "baseColorFactor": [
          0,
          0.5176470588235295,
          0.8823529411764706,
          0.6
        ],
        "metallicFactor": 0.3,
        "roughnessFactor": 1
      },
      "alphaMode": "BLEND",
      "extras": {
        "gltfExtensions": {}
      }
    }
  ],
  "textures": [
    {
      "sampler": 0,
      "source": 0,
      "name": "矩形_1_拷贝_10.png"
    },
    {
      "sampler": 1,
      "source": 1,
      "name": "Lo-渐变01.png"
    }
  ],
  "samplers": [
    {
      "magFilter": 9729,
      "minFilter": 9987,
      "wrapS": 10497,
      "wrapT": 10497
    },
    {
      "magFilter": 9729,
      "minFilter": 9987,
      "wrapS": 10497,
      "wrapT": 10497
    }
  ],
  "images": [
    {
      "mimeType": "image/png",
      "uri": "data:image/png;base64,"
    },
    {
      "mimeType": "image/png",
      "uri": "data:image/png;base64,"
    }
  ],
  "meshes": [
    {
      "primitives": [
        {
          "mode": 4,
          "attributes": {
            "COLOR_0": 0,
            "NORMAL": 1,
            "POSITION": 2,
            "TEXCOORD_0": 3,
            "TEXCOORD_1": 4,
            "__ALPHAINDEX": 5
          },
          "indices": 6,
          "material": 0
        }
      ]
    },
    {
      "primitives": [
        {
          "mode": 4,
          "attributes": {
            "COLOR_0": 0,
            "NORMAL": 1,
            "POSITION": 2,
            "TEXCOORD_0": 3,
            "TEXCOORD_1": 4,
            "__ALPHAINDEX": 5
          },
          "indices": 6,
          "material": 1
        }
      ]
    },
    {
      "primitives": [
        {
          "mode": 4,
          "attributes": {
            "COLOR_0": 7,
            "NORMAL": 8,
            "POSITION": 9,
            "TEXCOORD_0": 10,
            "TEXCOORD_1": 11,
            "__ALPHAINDEX": 12
          },
          "indices": 13,
          "material": 2
        }
      ]
    }
  ],
  "extensionsUsed": [
    "KHR_texture_transform"
  ]
}